# xmcd
#
# Track frame offsets: 
#        150
#        15480
#        27980
#        42063
#        52165
#        65863
#        79705
#        89033
#        104105
#        114830
#        128840
#        145715
#        158940
#        172130
#        182888
#        195588
#        207550
#        219170
#
# Disc length: 3086 seconds
#
# Revision: 5
# Processed by: cddbd v1.5.2PL0 Copyright (c) Steve Scherf et al.
# Submitted via: ExactAudioCopyFreeDBPlugin 1.0
#
DISCID=0a0c0c12
DTITLE=O.V. Wright - The Soul of O.V. Wright
DYEAR=1992
DGENRE=Soul
TTITLE0=You're Gonna Make Me Cry
TTITLE1=I'd Rather Be Blind, Crippled and Crazy
TTITLE2=When You Took Your Love from Me
TTITLE3=Gonna Forget About You
TTITLE4=Everybody Knows (The River Boat Song)
TTITLE5=Don't Let My Baby Ride
TTITLE6=I Don't Want to Sit Down
TTITLE7=Born All Over
TTITLE8=Ace of Spades
TTITLE9=Eight Men, Four Women
TTITLE10=A Nickel and a Nail
TTITLE11=Heartaches, Heartaches
TTITLE12=Drowning on Dry Land
TTITLE13=Monkey Dog
TTITLE14=He's My Son (Just the Same)
TTITLE15=I've Been Searching
TTITLE16=Motherless Child
TTITLE17=I'm Going Home (To Live with God)
EXTD=ID3G: 254
EXTT0=
EXTT1=
EXTT2=
EXTT3=
EXTT4=
EXTT5=
EXTT6=
EXTT7=
EXTT8=
EXTT9=
EXTT10=
EXTT11=
EXTT12=
EXTT13=
EXTT14=
EXTT15=
EXTT16=
EXTT17=
PLAYORDER=
